HIERARCHY
ROOT Hips
{
	OFFSET -0.210250286501 -22.4095192979 2.4778079991
	CHANNELS 6 Xposition Yposition Zposition Zrotation Yrotation Xrotation
	JOINT LeftHip
	{
		OFFSET 6.7239605042 -9.02592227597 -0.820604188979
		CHANNELS 3 Zrotation Yrotation Xrotation
		JOINT LeftKnee
		{
			OFFSET 3.53117034856 -37.4131041733 -0.267185927192
			CHANNELS 3 Zrotation Yrotation Xrotation
			JOINT LeftFoot
			{
				OFFSET -1.36281125292 -39.4575946694 -4.2325556617
				CHANNELS 3 Zrotation Yrotation Xrotation
				End LeftToe
				{
                                  OFFSET 2.63200659123 -5.52611729059 11.8427965007
				}
			}
		}
	}
	JOINT RightHip
	{
		OFFSET -6.53691450826 -8.92969347611 -0.595590833962
		CHANNELS 3 Zrotation Yrotation Xrotation
		JOINT RightKnee
		{
			OFFSET -3.90386892009 -38.1289614005 -0.717051396157
			CHANNELS 3 Zrotation Yrotation Xrotation
			JOINT RightFoot
			{
				OFFSET 1.59356963587 -39.4877561968 -4.07143400472
				CHANNELS 3 Zrotation Yrotation Xrotation
				End RightToe
				{
                                        OFFSET -2.41858745101 -4.79225128544 12.2439149476
				}
			}
		}
	}
	JOINT Waist
	{
		OFFSET -0.258952431592 10.7713098314 -2.4275265136
		CHANNELS 3 Zrotation Yrotation Xrotation
		JOINT Spine
		{
			OFFSET 0.582524874502 13.7222735323 0.296412033549
			CHANNELS 3 Zrotation Yrotation Xrotation
                        JOINT Chest
                        {
                            OFFSET 0.142503983782 5.32401386548 2.37988250535
                            CHANNELS 3 Zrotation Yrotation Xrotation
                            JOINT Neck
                            {
                                OFFSET -0.33028605004 21.279428275 -4.09279326128
                                CHANNELS 3 Zrotation Yrotation Xrotation
                                End Head
                                {
                                        OFFSET 0.0486310869413 26.7840481201 2.09925029524
                                }
                            }
                            JOINT LeftInnerShoulder
                            {
                                OFFSET 7.78288754671 12.0498138899 -3.26741069993
                                CHANNELS 3 Zrotation Yrotation Xrotation
                                JOINT LeftShoulder
                                {
                                        OFFSET 9.06709819707 2.99872583981 -0.836822840868
                                        CHANNELS 3 Zrotation Yrotation Xrotation
                                        JOINT LeftElbow
                                        {
                                                OFFSET 25.7906653535 -1.28451453439 -2.61010663386
                                                CHANNELS 3 Zrotation Yrotation Xrotation
                                                End LeftWrist
                                                {
                                                        OFFSET 24.6676388692 0.848764723602 -0.170469759097
                                                }
                                        }
                                }
                            }
                            JOINT RightInnerShoulder
                            {
                                OFFSET -8.10430512786 11.7438177492 -3.70863223428
                                CHANNELS 3 Zrotation Yrotation Xrotation
                                JOINT RightShoulder
                                {
                                        OFFSET -9.55344124626 3.24215303004 -0.867287522857
                                        CHANNELS 3 Zrotation Yrotation Xrotation
                                        JOINT RightElbow
                                        {
                                                OFFSET -25.1207904785 -1.35470200741 -2.00780243675
                                                CHANNELS 3 Zrotation Yrotation Xrotation
                                                End RightWrist
                                                {
                                                        OFFSET -25.2678657781 0.710869406323 -0.611721146418
                                                }
                                        }
                                }
                            }
                        }
                }
            }
}
MOTION
Frames: 8
Frame Time: 0.0333333333333
0.00000 0.00000 0.00000 2.94482 31.23235 -6.38343 14.22096 -4.42743 -19.54285 -4.95110 -9.36255 47.19223 -5.21141 6.69929 -3.59292 -6.05575 -1.61090 -10.31093 4.84022 3.28599 48.10997 8.20767 -9.12806 -5.54231 -2.57675 4.24023 12.44751 -0.38221 -0.41398 5.55196 0.33047 1.71921 1.55649 -12.33374 32.00586 -14.62694 -3.94374 -18.16089 -7.61317 -22.33261 -31.46459 -8.27519 74.55983 -49.39768 -82.25777 11.47165 25.43656 -5.10762 71.85485 32.02949 42.95319 -149.07753 62.52777 -132.52342
1.76673 0.42164 -0.01036 2.50119 35.30849 -6.33110 17.04931 -1.70306 -22.98524 -4.94751 -5.80180 49.18579 -4.70560 5.76811 -2.62369 -7.98045 -4.07081 -8.46958 4.98825 0.63806 47.27275 7.05234 -10.03400 -6.43378 -2.57021 4.89873 13.64632 -0.70330 -1.60532 4.80449 0.24253 0.76053 0.82592 -11.54520 31.23297 -15.49530 -7.31161 -21.30183 -7.24243 -19.14973 -33.66324 -9.70962 73.84729 -48.70020 -80.59965 14.57261 26.40156 -4.28994 68.06683 32.58443 40.41735 -141.73931 64.48982 -126.21005
6.93136 -0.42665 -0.01824 2.08563 40.14669 -5.49505 18.39880 -0.07847 -24.84770 -5.72122 -4.53390 50.17104 -5.55568 4.92377 -2.40841 -9.74699 -7.11323 -3.88659 5.48486 -1.76981 43.27862 7.24435 -10.07735 -6.01945 -2.68390 6.11199 12.40226 0.60232 -3.11228 5.51911 0.99637 0.55779 1.28148 -10.29148 28.72515 -15.11924 -6.13339 -21.97550 -7.23408 -20.54777 -35.05289 -8.15470 68.90649 -51.39446 -75.54631 15.41707 27.59414 -3.65721 67.96955 35.59717 38.74108 -118.82781 66.77872 -105.90072
12.31769 2.54651 -0.01421 2.56802 42.65789 -4.72745 19.01020 2.14264 -25.58788 -4.65025 -1.27158 48.11137 -5.45924 5.52488 -3.65568 -11.18410 -9.40795 0.19352 4.80447 -2.59803 38.51679 6.60597 -9.35508 -7.72336 -2.18269 7.11466 12.32013 0.57964 -2.60016 4.06241 1.16269 1.80175 1.09159 -5.96113 27.92478 -9.72511 -2.78651 -23.45901 -8.51610 -19.87776 -35.85777 -9.41072 72.39891 -54.67315 -65.58521 11.81831 31.23024 -5.95400 70.34416 43.12354 39.08148 -114.75616 70.51791 -92.90361
18.42657 -0.63817 -0.02282 6.19800 49.22670 0.99553 15.26267 0.36983 -28.28971 -4.52118 -2.51526 46.43336 -0.84122 3.22808 -5.70925 -13.65546 -13.86917 5.15059 4.20490 -4.39684 32.63803 9.02134 -10.12517 -6.90259 -0.82878 10.03659 11.55523 -1.29139 -0.78551 0.60452 0.89995 4.16873 1.69399 -3.64299 19.86778 -8.82645 4.37998 -24.92356 -13.92307 -26.28610 -44.42323 -7.93644 66.10284 -55.32543 -47.52878 1.05441 34.44767 -13.08484 71.04522 52.93905 35.56242 -95.86928 64.80205 -71.23838
26.01522 1.47591 -0.00489 10.85621 61.75765 4.77716 10.79561 -5.64250 -27.59969 -5.02195 -6.63911 40.55101 -4.22444 3.58034 1.20569 -12.10293 -15.85442 9.00626 5.32268 -4.17822 30.36547 9.83801 -13.45957 -9.16966 1.82901 11.04326 11.23649 -2.83980 0.55545 -0.17839 0.44767 6.22349 2.69058 -3.04858 10.64820 -7.89137 10.78573 -30.31256 -19.85124 -20.82152 -52.42570 -10.49979 56.56244 -48.81513 -50.81501 -10.84482 37.70372 -18.19198 29.62732 58.28623 1.75115 -73.85307 55.35767 -61.73142
31.71341 4.33537 -0.03432 32.55878 75.16801 23.27622 4.37228 -8.00190 -24.94513 -2.82037 -4.89104 34.33921 -2.97482 8.40309 4.38957 -4.44107 -11.79127 5.33029 4.44537 2.14274 36.43345 10.00427 -18.21679 -8.49966 2.23801 9.59672 12.06799 -3.43730 1.19283 0.72208 -0.31364 6.53916 3.93970 -0.80252 3.00520 -3.49086 15.62977 -32.01568 -24.18157 -14.01603 -53.30474 -12.57623 49.50214 -50.53223 -49.55884 -20.13750 36.58028 -22.15008 3.23561 48.41939 -18.24129 -55.15441 45.54145 -52.03240
34.95570 7.63440 -0.01795 125.61940 79.79408 110.92815 -2.83904 -8.07140 -19.49996 -4.73925 -4.13609 39.08113 0.21368 8.96780 4.30915 0.17804 -6.65797 -12.00741 4.06295 -1.03893 53.10352 10.11117 -20.37286 -7.53442 2.52458 4.64036 17.22812 -3.35643 0.53616 -0.06138 -1.41842 4.61962 3.40317 -0.68778 -2.30750 -4.03221 17.32615 -35.50782 -26.17771 -3.77774 -51.54327 -18.19977 47.60471 -50.49094 -52.27230 -23.44456 36.96218 -25.60919 -6.54888 40.65027 -23.80121 -55.91979 40.72115 -58.82659
